<?xml version="1.0" encoding="UTF-8"?>
<svg id="Build_icon_here" data-name="Build icon here" xmlns="http://www.w3.org/2000/svg" width="32" height="32" xmlns:xlink="http://www.w3.org/1999/xlink" viewBox="0 0 32 32">
  <defs>
    <style>
      .cls-1 {
        fill: url(#linear-gradient);
      }

      .cls-2 {
        mask: url(#mask);
      }

      .cls-3 {
        fill: #001d6c;
      }

      .cls-4 {
        fill: #fff;
      }

      .cls-5 {
        fill: url(#linear-gradient-3);
      }

      .cls-6 {
        fill: url(#linear-gradient-4);
      }

      .cls-7 {
        fill: url(#linear-gradient-2);
      }
    </style>
    <linearGradient id="linear-gradient" x1="-9360.4123" y1="-12233.0431" x2="-9346.5716" y2="-12251.3192" gradientTransform="translate(4339.8838 -10335.0218) rotate(-33.7767) scale(1 -.5065)" gradientUnits="userSpaceOnUse">
      <stop offset=".1" stop-color="#000" stop-opacity="0"/>
      <stop offset=".58" stop-color="#000"/>
    </linearGradient>
    <linearGradient id="linear-gradient-2" x1="1186.5258" y1="2863.1688" x2="1199.8252" y2="2845.1094" gradientTransform="translate(-198.8939 -1827.3976) rotate(33.7767) scale(1 .4926)" gradientUnits="userSpaceOnUse">
      <stop offset=".3" stop-color="#000"/>
      <stop offset="1" stop-color="#000" stop-opacity="0"/>
    </linearGradient>
    <linearGradient id="linear-gradient-3" x1="-4995.0325" y1="-20162.836" x2="-4981.7331" y2="-20180.8954" gradientTransform="translate(1398.1985 -11004.6024) rotate(-146.2233) scale(1 .4926)" gradientUnits="userSpaceOnUse">
      <stop offset=".32" stop-color="#000"/>
      <stop offset=".9" stop-color="#000" stop-opacity="0"/>
    </linearGradient>
    <mask id="mask" x="0" y="0" width="32" height="32" maskUnits="userSpaceOnUse">
      <g>
        <path class="cls-4" d="m13.7148,23.668c-3.3652-1.001-5.7148-4.1543-5.7148-7.668s2.3496-6.6675,5.7148-7.6685l.5703,1.917c-2.5234.7505-4.2852,3.1157-4.2852,5.7515s1.7617,5.001,4.2852,5.752l-.5703,1.916Z"/>
        <path class="cls-4" d="m16,12c-1.6543,0-3-1.3457-3-3s1.3457-3,3-3,3,1.3457,3,3-1.3457,3-3,3Zm0-4c-.5518,0-1,.4487-1,1s.4482,1,1,1,1-.4487,1-1-.4482-1-1-1Z"/>
        <polygon class="cls-1" points="15 21.0001 13 11.0001 4 19.9997 15 28.0001 15 21.0001"/>
        <path class="cls-4" d="m16,31c-8.2715,0-15-6.7285-15-15,0-2.4072.584-4.7998,1.6885-6.9194l1.7734.9238c-.9697,1.8618-1.4619,3.8789-1.4619,5.9956,0,7.168,5.832,13,13,13,3.4229,0,6.6533-1.3193,9.0977-3.7139l1.4004,1.4277c-2.8203,2.7637-6.5488,4.2861-10.498,4.2861Z"/>
        <path class="cls-4" d="m29.3115,22.9189l-1.7734-.9238c.9697-1.8613,1.4619-3.8779,1.4619-5.9951,0-7.1685-5.832-13-13-13-3.4229,0-6.6533,1.3188-9.0977,3.7144l-1.4004-1.4287c2.8203-2.7637,6.5488-4.2856,10.498-4.2856,8.2715,0,15,6.729,15,15,0,2.4072-.584,4.7998-1.6885,6.9189Z"/>
        <polygon class="cls-7" points="8 9 0 0 16 0 18.3046 3.3046 8 9"/>
        <polygon class="cls-5" points="24 23 32 32 16 32 13.6954 28.6954 24 23"/>
      </g>
    </mask>
    <linearGradient id="linear-gradient-4" x1="0" y1="32" x2="32" y2="0" gradientUnits="userSpaceOnUse">
      <stop offset=".1" stop-color="#a16eff"/>
      <stop offset=".9" stop-color="#0f62fa"/>
    </linearGradient>
  </defs>
  <g class="cls-2">
    <rect class="cls-6" width="32" height="32"/>
  </g>
  <circle class="cls-3" cx="6" cy="6" r="2"/>
  <circle class="cls-3" cx="26" cy="26" r="2"/>
  <path class="cls-3" d="m24,16c0-2.168-.8525-4.1978-2.4014-5.7148l-1.4004,1.4287c1.1621,1.1382,1.8018,2.6602,1.8018,4.2861,0,2.3351-1.386,4.4523-3.4562,5.4283-.5294-.8538-1.4675-1.4283-2.5438-1.4283-1.6543,0-3,1.3457-3,3s1.3457,3,3,3c1.5156,0,2.759-1.1334,2.959-2.595,2.9938-1.2018,5.041-4.1356,5.041-7.405Zm-8,8c-.5518,0-1-.4482-1-1s.4482-1,1-1,1,.4482,1,1-.4482,1-1,1Z"/>
</svg>